<svg width="2523" height="1932" viewBox="0 0 2523 1932">
  <defs>
    <style>
      .cls-1, .cls-2, .cls-3 {
        fill: none;
      }

      .cls-2 {
        stroke: var(--c-black);
        stroke-width: 30px;
      }

      .cls-2, .cls-3 {
        stroke-miterlimit: 10;
      }

      .cls-4 {
        fill: var(--c-red);
      }

      .cls-5 {
        fill: #feefd2;
      }

      .cls-6 {
        fill: #fbaf1d;
      }

      .cls-7 {
        fill: #140c08;
      }

      .ray {
        stroke: var(--c-red);
        stroke-width: 3;
      }
    </style>
  </defs>
  <path id="sun" class="cls-5" d="m1121.71,1024.72c0-77.18,62.57-139.75,139.75-139.75s139.75,62.57,139.75,139.75"/>
  <path class="cls-1" d="m1244.16,854.46l-10.95-18.97,8.79,52.55,11.07-30.7h-3.92c-2.06,0-3.96-1.1-4.99-2.88Z"/>
  <polygon class="cls-1" points="1267.52 863.45 1270.01 953.3 1279.49 896.66 1267.52 863.45"/>
  <polygon class="cls-1" points="1255.41 863.36 1243.43 896.6 1252.91 953.3 1255.41 863.36"/>
  <path class="cls-1" d="m1278.77,854.46c-1.03,1.78-2.93,2.88-4.99,2.88h-3.95l11.09,30.76,8.8-52.61-10.95,18.97Z"/>
  <polygon class="cls-1" points="1255.57 857.43 1255.58 857.34 1255.32 857.34 1255.57 857.43"/>
  <polygon class="cls-1" points="1267.35 857.34 1267.35 857.42 1267.58 857.34 1267.35 857.34"/>
  <polygon class="cls-1" points="1292.95 841.96 1283.86 896.27 1316.25 986.12 1292.95 841.96"/>
  <polygon class="cls-1" points="1239.05 896.21 1229.98 841.96 1206.7 985.97 1239.05 896.21"/>
  <polygon class="cls-1" points="1273.32 827.48 1273.32 830.24 1290.6 830.24 1290.66 829.89 1291.01 829.95 1290.61 827.48 1273.32 827.48"/>
  <path class="cls-1" d="m1263.67,724.6l2.18,78.64h2.93c1.22,0,2.35.65,2.96,1.71l8.3,14.37h-13.74l.08,2.77h23.36l-15.75-97.49h-10.31Z"/>
  <path class="cls-1" d="m1256.55,822.08l.08-2.77h-13.74l8.3-14.37c.61-1.06,1.74-1.71,2.96-1.71h2.93l2.18-78.64h-10.31l-15.75,97.49h23.36Z"/>
  <polygon class="cls-1" points="1232.27 829.89 1232.33 830.24 1249.6 830.24 1249.6 827.48 1232.32 827.48 1231.92 829.95 1232.27 829.89"/>
  <path d="m1209.01,679.23c0,.07,0,.14-.01.21.02-.07.04-.15.06-.22-.02,0-.03,0-.05,0Z"/>
  <path id="tower" class="cls-7" d="m1330.39,1012.38v-6.29c0-4.1-3.1-7.48-7.09-7.91l-45.53-281.7,12.71-22.01h-17.96c0-5.7-4.33-10.4-9.87-11l-1.2-43.36-1.2,43.36c-5.54.6-9.87,5.31-9.87,11h-17.96l12.71,22.01-45.53,281.7c-3.98.44-7.09,3.81-7.09,7.91v6.29c-5.66.74-10.04,5.58-10.04,11.45h157.94c0-5.87-4.37-10.71-10.04-11.45Zm-77.87-317.92c0-4.93,4.01-8.94,8.94-8.94s8.94,4.01,8.94,8.94-4.01,8.94-8.94,8.94-8.94-4.01-8.94-8.94Zm3.05,157.98l-.25-.09h.26v.09Zm11.78-.09h.23l-.22.08v-.08Zm-14.29,0l-11.07,30.7-8.79-52.55,10.95,18.97c1.03,1.78,2.93,2.88,4.99,2.88h3.92Zm2.35,6.02l-2.49,89.94-9.49-56.7,11.98-33.24Zm12.11.09l11.97,33.21-9.48,56.64-2.49-89.85Zm2.31-6.11h3.95c2.06,0,3.96-1.1,4.99-2.88l10.95-18.97-8.8,52.61-11.09-30.76Zm23.11-15.39l23.3,144.16-32.38-89.85,9.09-54.31Zm-2.29-12.06l-.06.35h-17.28v-2.77h17.29l.4,2.47-.35-.06Zm-24.29-7.81l-.08-2.77h13.74l-8.3-14.37c-.61-1.06-1.74-1.71-2.96-1.71h-2.93l-2.18-78.64h10.31l15.75,97.49h-23.36Zm-7.12-97.49l-2.18,78.64h-2.93c-1.22,0-2.35.65-2.96,1.71l-8.3,14.37h13.74l-.08,2.77h-23.36l15.75-97.49h10.31Zm-9.66,102.88v2.77h-17.28l-.06-.35-.35.06.4-2.47h17.29Zm-10.55,68.73l-32.35,89.76,23.27-144.01,9.08,54.25Zm-34.43,108.07l35.87-99.51,11.81,70.62-1.16,41.89h-42.69v-6.19c0-2.88-1.53-5.41-3.83-6.81Zm66.01-28.89l11.81-70.56,35.85,99.47c-2.28,1.4-3.81,3.92-3.81,6.79v6.19h-42.69l-1.16-41.89Z"/>
  <path id="red" class="cls-4" d="m1261.46,703.4c4.93,0,8.94-4.01,8.94-8.94s-4.01-8.94-8.94-8.94-8.94,4.01-8.94,8.94,4.01,8.94,8.94,8.94Z"/>
  <path id="yellow" class="cls-6" d="m1261.46,849.19c3.25,0,5.89-2.64,5.89-5.89s-2.64-5.89-5.89-5.89-5.89,2.64-5.89,5.89,2.64,5.89,5.89,5.89Z"/>
  <path id="wave6" class="cls-2" d="m1082.82,1257.91c29.78,0,29.78,34,59.56,34s29.78-34,59.56-34,29.78,34,59.56,34,29.78-34,59.56-34,29.78,34,59.56,34,29.78-34,59.56-34"/>
  <path id="wave5" class="cls-2" d="m1082.82,1219.73c29.78,0,29.78,28.33,59.56,28.33s29.78-28.33,59.56-28.33,29.78,28.33,59.56,28.33,29.78-28.33,59.56-28.33,29.78,28.33,59.56,28.33,29.78-28.33,59.56-28.33"/>
  <path id="wave4" class="cls-2" d="m1082.82,1181.55c29.78,0,29.78,22.67,59.56,22.67s29.78-22.67,59.56-22.67,29.78,22.67,59.56,22.67,29.78-22.67,59.56-22.67,29.78,22.67,59.56,22.67,29.78-22.67,59.56-22.67"/>
  <path id="wave3" class="cls-2" d="m1082.82,1143.37c29.78,0,29.78,17,59.56,17s29.78-17,59.56-17,29.78,17,59.56,17,29.78-17,59.56-17,29.78,17,59.56,17,29.78-17,59.56-17"/>
  <path id="wave2" class="cls-2" d="m1082.82,1105.19c29.78,0,29.78,11.33,59.56,11.33s29.78-11.33,59.56-11.33,29.78,11.33,59.56,11.33,29.78-11.33,59.56-11.33,29.78,11.33,59.56,11.33,29.78-11.33,59.56-11.33"/>
  <path id="wave1" class="cls-2" d="m1082.82,1067.01c29.78,0,29.78,5.67,59.56,5.67s29.78-5.67,59.56-5.67,29.78,5.67,59.56,5.67,29.78-5.67,59.56-5.67,29.78,5.67,59.56,5.67,29.78-5.67,59.56-5.67"/>
  <path id="city" class="cls-7" d="m1428.26,1013.83v-24.31h-21.49v-2.67h-5.93v-4.58h-6.96v2.76h-1.24v2.41h-.5v8.44h-2.89v-3.57h-6.45v-3.63h-6.91v3.61h-.62v.48h-.74v-.35h-.56v-.74h-6.31v.57h-.67v.5h-.75v-4.04h-.59v-.5h-1.85v.57h-7.9v-.64h-1.93v-27.1h-2.2v26.96h-2.56v.71h-4.72v20.78h-4.33v-18.23h-13.21v7.16h-7.49v-.54h-.68v-.7h-2.48v1.23h-1.92v.6h-5.92v-1.29h-1.06v3.07h-.79v.57h-4.03v1.13h-5.03v1.73h-1.18v.61h-.66v-4.12h-1.09v-6.21h-14.9v-1.89h-2.67v-2.93h-10.15v1.18h-.83v1.64h-3.07v-2.11l-4.88-5.93h-4.48l-4.56,3.25v-3.61h-22.59v11.44h-14.21v-7.53h-1.95v-1.69h-9.38v1.54h-2.67v7.08h-.61v.64h-1.55v.64h-1.61v8.65h-.85v-3.61h-1.24v-.52h-2.44v3.86h-1.18v2.63h-1.53v-7.02h-2.3v1.23h-1.08v4.72h-4.35v-22.64h-2.42v-1.18h1.21v-2.81h-2.92v-1.18h-12.68v1.18h-1.12v2.95h1.12v1.18h-2.3v3.83h-4.01v-1.29h-3.04v-2.39h-.71v-1.64h-.59v-2.56h-1.82c-.39-5.97-4.36-5.72-4.36-5.72-4.99.11-4.76,5.32-4.76,5.32h-1.25v2.31h-1.07v2.55h-.9v12.15l-2.28-1.03-2.13,1.93v5.35h-1.97v.68h-1.45v-3.18h-1.71v3h-.92v.9h-1.65v2.01h-5.63v-1.13h-2.06v-19.27h-.68v-.46h-2.54v.48h-.73v20.64h-1.81v-1.29h-2.4v-1.29h-6.29v-3.45h-9.02v13.69h-11.85v30h357.37v-30h-11.93Z"/>
  <line class="ray ray1" x1="1261.5" y1="694.5" x2="1974" y2="-10"/>
  <line class="ray ray2" x1="1261.5" y1="694.5" x2="545" y2="-22"/>
  <line class="ray ray3" x1="1261.5" y1="694.5" x2="1261.5" y2="-10.5"/>
  <line class="ray ray4" x1="1261.5" y1="694.5" x2="2522.5" y2="694.5"/>
  <line class="ray ray5" x1="1261.5" y1="694.5" x2="-6.5" y2="694.5"/>
  <line class="ray ray6" x1="1261.5" y1="694.5" x2="155.5" y2="1800.5"/>
  <line class="ray ray7" x1="1261.5" y1="694.5" x2="2437" y2="1870"/>
</svg>