<?xml version="1.0" encoding="UTF-8"?>
<svg id="Layer_1" data-name="Layer 1" xmlns="http://www.w3.org/2000/svg" width="327" height="321" viewBox="0 0 327 321">
  <defs>
    <style>
      .cls-1 {
        fill: #f35336;
      }

      .cls-2 {
        fill: #feefd2;
      }

      .cls-3 {
        fill: #140c08;
      }

      .cls-4 {
        stroke: #fbaf1d;
        stroke-miterlimit: 10;
        stroke-width: 2px;
      }
    </style>
  </defs>
  <path d="m195.19,97.04c-14.54.52-28.56,10.06-31.92,24.56-2.66,10.4-1.04,21.78,4.52,30.97,5.42,9.04,14.67,15.99,24.66,18.97,6.75,1.9,13.95,1.61,20.57-.66,6.67-2.32,12.85-5.74,17.77-10.91,5.97-6.74,12.78-9.45,21.7-7.54,12.59,2.86,24.82,12.68,32.46,22.8,19.8,26.99,15.37,61.98,8.8,92.45-3.51,15.28-1.4,28.06,9.66,39.69,0,0-.41.44-.41.44-12.87-10.78-16.16-24.7-13.41-40.82,2.43-17.89,5.37-35.96,3.08-53.92-2.06-15.6-7.81-31.28-19.15-42.47-8.1-7.44-20.11-16.65-31.64-13.29-3.28,1.02-5.53,3.35-8.04,5.77-5.34,5.4-12.38,9.19-19.61,11.5-22.45,7.62-47.53-8.89-52.97-31.16-3.77-14.37.3-31.7,13-40.34,6.15-4.27,13.55-6.46,20.93-6.64l.02.6h0Z"/>
  <circle class="cls-4" cx="201.85" cy="132.4" r="38.56"/>
  <circle class="cls-4" cx="201.85" cy="132.4" r="32.69"/>
  <circle class="cls-4" cx="201.85" cy="132.4" r="24.65"/>
  <path class="cls-2" d="m246.47,155.14c12.56-24.64,2.76-54.81-21.88-67.37-24.64-12.56-54.81-2.76-67.37,21.88-12.56,24.64-2.76,54.81,21.88,67.37,24.64,12.56,54.81,2.76,67.37-21.88Zm-32.31,14.99c-3.6,7.07-12.26,9.88-19.33,6.28-7.07-3.6-9.88-12.26-6.28-19.33,3.6-7.07,12.26-9.88,19.33-6.28,7.07,3.6,9.88,12.26,6.28,19.33Zm27.25-15.09c-3.6,7.07-12.26,9.88-19.33,6.28-7.07-3.6-9.88-12.26-6.28-19.33,3.6-7.07,12.26-9.88,19.33-6.28,7.07,3.6,9.88,12.26,6.28,19.33Zm-42.48-16.92c-3.18-1.62-4.44-5.51-2.82-8.69,1.62-3.18,5.51-4.44,8.69-2.82s4.44,5.51,2.82,8.69c-1.62,3.18-5.51,4.44-8.69,2.82Zm43.11-14.3c-3.6,7.07-12.26,9.88-19.33,6.28-7.07-3.6-9.88-12.26-6.28-19.33,3.6-7.07,12.26-9.88,19.33-6.28,7.07,3.6,9.88,12.26,6.28,19.33Zm-52.67-29.23c3.6-7.07,12.26-9.88,19.33-6.28,7.07,3.6,9.88,12.26,6.28,19.33-3.6,7.07-12.26,9.88-19.33,6.28-7.07-3.6-9.88-12.26-6.28-19.33Zm-27.06,15.1c3.6-7.07,12.26-9.88,19.33-6.28s9.88,12.26,6.28,19.33c-3.6,7.07-12.26,9.88-19.33,6.28-7.07-3.6-9.88-12.26-6.28-19.33Zm-.62,31.21c3.6-7.07,12.26-9.88,19.33-6.28,7.07,3.6,9.88,12.26,6.28,19.33-3.6,7.07-12.26,9.88-19.33,6.28-7.07-3.6-9.88-12.26-6.28-19.33Z"/>
  <path class="cls-1" d="m128.33,96.54c.1,27.1.2,54.2.29,81.31,11.93,1.79,21.9,4.26,29.47,6.47,7.87,2.3,20.77,6.15,36.19,14.27,6.75,3.56,12.15,6.97,15.94,9.52,2.46-2.49,4.93-4.98,7.39-7.47,5.04-5.13,9.64-9.3,13.38-12.52,3.27-2.81,12.35-10.48,25.36-18.74,2.49-1.58,4.61-2.86,6.14-3.76-.4-.56-1.03-1.36-1.94-2.16-.77-.67-2.83-2.3-10.58-3.48-5.72-.87-7.1-.37-8,.16-.94.56-1.34,1.15-2.63,2.76-1.76,2.22-3.7,4.29-5.48,6.49-3.15,3.9-7.48,6.06-11.23,7.92-12.49,6.21-25.61,4.42-28.07,4.05-2.8-.42-15.72-2.63-27.15-13.53-10.54-10.04-13.6-21.54-14.16-23.78-4.58-18.21,3.21-32.87,4.97-36.02,7.91-14.08,20.29-19.95,25.12-21.91,14.16-5.72,26.54-3.25,29.26-2.66,2.89.63,14.8,3.53,25.04,14.23,3.01,3.15,10.99,11.72,13.02,25.39,1.11,7.48.02,13.72-.97,17.55-.01.67-.02,1.34-.03,2.01.06.74.21,1.64.57,2.62.96,2.62,2.81,4.15,3.75,4.82,0,0,3.72,3.51,9.31,5.41,0,0,0,0,0,0-.07-1.22-.14-2.95-.1-5.03.05-2.6.13-7.1,1.37-12.38.54-2.27,2.16-8.4,2.71-11.95.07-.42.21-1.42-.03-2.67-.32-1.64-1.12-2.74-1.37-3.1-1.21-1.73-3.48-6.58-8.01-16.28-2.62-5.6-3.93-8.4-4.66-10.89-.69-2.33-.89-3.67-2.02-5.4-2.04-3.14-5.12-4.51-7.4-5.48-7.37-3.13-14.41-5.42-19.03-6.81,3.06-.91,6.12-1.82,9.18-2.73,1.73-.55,4.62-1.22,8.09-.71,1.99.29,3.5.87,4.46,1.28,5.52,2.36,10.03,6.37,13.4,9.06,4.68,3.73,10.87,8.56,18.3,9.89,4.07.73,6.72.09,8.53-.72,1.79-.8,3.06-1.88,3.84-2.67-.7-.45-1.4-.9-2.11-1.36-16.72-10.22-23.61-16.02-26.68-19.49-.48-.55-4.33-4.94-10.23-7.62-1.53-.7-2.85-1.12-4.2-1.38-4.06-.78-7.32.13-8.76.5-3.74.96-9.51,1.95-19.14,2.75,5.14-2.77,10.29-5.54,15.43-8.31,1-.92,2.85-2.39,5.57-3.27.61-.2,3.32-1.03,7.11-.52,2.77.37,3.77,1.14,7.99,2.89,5.42,2.25,8.14,3.37,11.83,3.65,2.39.18,5.65.37,8.65-1.65,1.75-1.18,2.78-2.68,3.34-3.68-1.44-.59-2.89-1.18-4.33-1.77-11.24-4.56-18.17-7.81-21.82-10.16-1.18-.76-4.43-2.98-8.98-3.15-.41-.02-1.27-.03-2.49.12-5.67.68-10.07,3.77-10.98,4.39-3.88,2.66-11.36,6.47-25.08,12.25,1.73-2.84,4.08-6.2,7.23-9.64,3.24-3.55,6.46-6.24,9.2-8.24,3.87-2.4,8.83-5.53,14.88-9.46,2.51-1.63,4.69-3.09,5.85-5.89,1.4-3.39.49-6.81-.14-8.58-.69.59-1.38,1.17-2.07,1.76-4.4,3.27-8.25,5.49-11,6.93-5.71,2.98-10.02,4.36-17.42,9,0,0-1.49.93-2.91,1.9-9.72,6.59-16.41,15.11-21.08,20.39-6.07,6.86-4.25,3.2-20.03,18.24-12.11,11.54-14.58,15.03-21.84,19.46-7.12,4.34-13.74,6.48-18.06,7.59Z"/>
  <rect class="cls-3" x="7.66" y="96.6" width="112.4" height="81.14"/>
  <path class="cls-2" d="m120.5,182.35c-5.24-32.58-10.48-65.15-15.71-97.73,8.37,2.86,16.75,5.71,25.12,8.57-.15,29.62-.3,59.24-.45,88.86-2.99.1-5.97.2-8.96.3Z"/>
  <circle cx="120.05" cy="110.74" r="6.29"/>
</svg>