<svg width="245" height="17" viewBox="0 0 245 17" fill="none" xmlns="http://www.w3.org/2000/svg">
<g clip-path="url(#clip0_128_416)">
<path d="M0.5 16.46V0" stroke="#FBAF1D" stroke-miterlimit="10"/>
<path d="M26.47 8.22998V16.46" stroke="#FBAF1D" stroke-miterlimit="10"/>
<path d="M21.25 8.22998V16.46" stroke="#FBAF1D" stroke-miterlimit="10"/>
<path d="M16.03 8.22998V16.46" stroke="#FBAF1D" stroke-miterlimit="10"/>
<path d="M10.8101 8.22998V16.46" stroke="#FBAF1D" stroke-miterlimit="10"/>
<path d="M5.58997 8.22998V16.46" stroke="#FBAF1D" stroke-miterlimit="10"/>
<path d="M57.63 8.22998V16.46" stroke="#FBAF1D" stroke-miterlimit="10"/>
<path d="M52.41 8.22998V16.46" stroke="#FBAF1D" stroke-miterlimit="10"/>
<path d="M47.1899 8.22998V16.46" stroke="#FBAF1D" stroke-miterlimit="10"/>
<path d="M41.97 8.22998V16.46" stroke="#FBAF1D" stroke-miterlimit="10"/>
<path d="M36.75 8.22998V16.46" stroke="#FBAF1D" stroke-miterlimit="10"/>
<path d="M31.6801 16.46V4.13" stroke="#FBAF1D" stroke-miterlimit="10"/>
<path d="M62.6 16.46V0" stroke="#FBAF1D" stroke-miterlimit="10"/>
<path d="M88.5699 8.22998V16.46" stroke="#FBAF1D" stroke-miterlimit="10"/>
<path d="M83.35 8.22998V16.46" stroke="#FBAF1D" stroke-miterlimit="10"/>
<path d="M78.13 8.22998V16.46" stroke="#FBAF1D" stroke-miterlimit="10"/>
<path d="M72.91 8.22998V16.46" stroke="#FBAF1D" stroke-miterlimit="10"/>
<path d="M67.6899 8.22998V16.46" stroke="#FBAF1D" stroke-miterlimit="10"/>
<path d="M119.73 8.22998V16.46" stroke="#FBAF1D" stroke-miterlimit="10"/>
<path d="M114.51 8.22998V16.46" stroke="#FBAF1D" stroke-miterlimit="10"/>
<path d="M109.29 8.22998V16.46" stroke="#FBAF1D" stroke-miterlimit="10"/>
<path d="M104.07 8.22998V16.46" stroke="#FBAF1D" stroke-miterlimit="10"/>
<path d="M98.85 8.22998V16.46" stroke="#FBAF1D" stroke-miterlimit="10"/>
<path d="M93.79 16.46V4.13" stroke="#FBAF1D" stroke-miterlimit="10"/>
<path d="M124.81 16.46V0" stroke="#FBAF1D" stroke-miterlimit="10"/>
<path d="M150.78 8.22998V16.46" stroke="#FBAF1D" stroke-miterlimit="10"/>
<path d="M145.56 8.22998V16.46" stroke="#FBAF1D" stroke-miterlimit="10"/>
<path d="M140.34 8.22998V16.46" stroke="#FBAF1D" stroke-miterlimit="10"/>
<path d="M135.12 8.22998V16.46" stroke="#FBAF1D" stroke-miterlimit="10"/>
<path d="M129.9 8.22998V16.46" stroke="#FBAF1D" stroke-miterlimit="10"/>
<path d="M181.94 8.22998V16.46" stroke="#FBAF1D" stroke-miterlimit="10"/>
<path d="M176.72 8.22998V16.46" stroke="#FBAF1D" stroke-miterlimit="10"/>
<path d="M171.5 8.22998V16.46" stroke="#FBAF1D" stroke-miterlimit="10"/>
<path d="M166.28 8.22998V16.46" stroke="#FBAF1D" stroke-miterlimit="10"/>
<path d="M161.06 8.22998V16.46" stroke="#FBAF1D" stroke-miterlimit="10"/>
<path d="M156 16.46V4.13" stroke="#FBAF1D" stroke-miterlimit="10"/>
<path d="M186.91 16.46V0" stroke="#FBAF1D" stroke-miterlimit="10"/>
<path d="M212.88 8.22998V16.46" stroke="#FBAF1D" stroke-miterlimit="10"/>
<path d="M207.66 8.22998V16.46" stroke="#FBAF1D" stroke-miterlimit="10"/>
<path d="M202.44 8.22998V16.46" stroke="#FBAF1D" stroke-miterlimit="10"/>
<path d="M197.22 8.22998V16.46" stroke="#FBAF1D" stroke-miterlimit="10"/>
<path d="M192 8.22998V16.46" stroke="#FBAF1D" stroke-miterlimit="10"/>
<path d="M238.82 8.22998V16.46" stroke="#FBAF1D" stroke-miterlimit="10"/>
<path d="M233.6 8.22998V16.46" stroke="#FBAF1D" stroke-miterlimit="10"/>
<path d="M228.38 8.22998V16.46" stroke="#FBAF1D" stroke-miterlimit="10"/>
<path d="M223.16 8.22998V16.46" stroke="#FBAF1D" stroke-miterlimit="10"/>
<path d="M218.1 16.46V4.13" stroke="#FBAF1D" stroke-miterlimit="10"/>
</g>
<defs>
<clipPath id="clip0_128_416">
<rect width="244.54" height="16.46" fill="white"/>
</clipPath>
</defs>
</svg>
