<?xml version="1.0" standalone="no"?>
<svg xmlns="http://www.w3.org/2000/svg" width="905.187" height="180.952" viewBox="0 0 905.187 180.952">
  <circle cx="391.5" cy="90.452" r="90.452"/>
  <path d="M557.761,180.952q-20.135,0-35.545-7.209a56.5,56.5,0,0,1-24.11-20.63q-8.7-13.421-8.7-32.313v-6.96H521.72v6.96q0,15.662,9.694,23.488t26.347,7.832q16.9,0,25.228-6.713a21.069,21.069,0,0,0,8.326-17.149q0-7.209-4.1-11.683t-11.931-7.331a153.613,153.613,0,0,0-19.014-5.345l-5.717-1.242a144.877,144.877,0,0,1-30.7-10.067q-12.8-6.09-19.636-16.033t-6.835-25.849q0-15.9,7.581-27.217T522.34,6.09Q536.137,0,554.777,0t33.184,6.338A51.429,51.429,0,0,1,610.828,25.23q8.323,12.555,8.327,31.441v7.458H586.842V56.671q0-9.936-3.853-16.03a22.494,22.494,0,0,0-11.06-8.947,46.545,46.545,0,0,0-17.152-2.858q-14.913,0-22,5.589T525.7,49.714a17.691,17.691,0,0,0,3.356,10.934,24.8,24.8,0,0,0,10.066,7.458,88.655,88.655,0,0,0,17.15,5.219l5.717,1.245a161.336,161.336,0,0,1,32.437,10.189q13.794,6.217,21.5,16.405t7.705,26.1q0,15.909-8.078,27.962t-22.867,18.891Q577.893,180.95,557.761,180.952Z"/>
  <path d="M677.323,177.472V33.31H626.617V3.48H760.839V33.31H710.133V177.472Z"/>
  <path d="M123.384,108.869a34.685,34.685,0,0,0-11.061-11.805,44.779,44.779,0,0,0-11.931-5.593V87a45.926,45.926,0,0,0,11.558-5.841,35.45,35.45,0,0,0,10.563-11.683q4.476-7.581,4.474-19.51V47.476q0-13.668-6.586-23.488A42.814,42.814,0,0,0,102.008,8.825Q90.2,3.484,74.294,3.48H0V177.472H75.288q15.659,0,27.466-5.467a43.192,43.192,0,0,0,18.518-15.786q6.71-10.309,6.71-24.729V129Q127.982,116.579,123.384,108.869ZM32.49,33.31H70.814q10.439,0,16.9,5.092t6.462,14.541V55.43q0,9.2-6.587,14.418T70.814,75.066H32.49Zm62.683,94.2q0,9.69-6.587,14.911t-17.275,5.222H32.49V104.892H71.311q10.933,0,17.4,5.219t6.462,14.915Z"/>
  <rect x="726.267" y="91.009" width="178.92" height="86.462"/>
  <path d="M749.777,158.708V109.562h9.268v20.29H777.3v-20.29h9.267v49.146H777.3V138.277H759.045v20.431Z" fill="#fff"/>
  <path d="M863.519,159.69a18.555,18.555,0,0,1-9.162-2.281,16.589,16.589,0,0,1-6.529-6.67,21.872,21.872,0,0,1-2.422-10.706V128.238q0-9.478,5.335-14.568t14.463-5.09q9.057,0,14.007,4.808t4.949,13.024v.281h-9.127v-.561a10.094,10.094,0,0,0-1.088-4.7,8.014,8.014,0,0,0-3.265-3.335,11.035,11.035,0,0,0-5.476-1.228,10.035,10.035,0,0,0-7.723,3.018,11.589,11.589,0,0,0-2.808,8.215v12.076a11.873,11.873,0,0,0,2.808,8.25,10.027,10.027,0,0,0,7.863,3.124q5.056,0,7.372-2.668a9.909,9.909,0,0,0,2.317-6.741v-.7H863.379v-7.863H884.16v25.135H875.6V154h-1.264a10.3,10.3,0,0,1-1.579,2.527,8.211,8.211,0,0,1-3.265,2.247A15.844,15.844,0,0,1,863.519,159.69Z" fill="#fff"/>
  <path d="M835.261,139.331A9.781,9.781,0,0,0,832.137,136a12.61,12.61,0,0,0-3.37-1.58v-1.264a13.011,13.011,0,0,0,3.265-1.649,10.028,10.028,0,0,0,2.984-3.3,10.741,10.741,0,0,0,1.264-5.512v-.7a11.645,11.645,0,0,0-1.86-6.635,12.109,12.109,0,0,0-5.2-4.282,18.848,18.848,0,0,0-7.829-1.51H798.653v49.146h23.023a18.278,18.278,0,0,0,7.758-1.545,12.194,12.194,0,0,0,5.231-4.458,12.533,12.533,0,0,0,1.895-6.986v-.7A10.987,10.987,0,0,0,835.261,139.331Zm-27.414-21.344h12.566a7.49,7.49,0,0,1,4.774,1.439,4.93,4.93,0,0,1,1.825,4.108v.7a4.909,4.909,0,0,1-1.86,4.071,7.391,7.391,0,0,1-4.739,1.475H807.847ZM827.293,144.6a5.056,5.056,0,0,1-1.861,4.212,7.619,7.619,0,0,1-4.879,1.475H807.847V138.207h12.706a7.6,7.6,0,0,1,4.914,1.474,5.1,5.1,0,0,1,1.826,4.213Z" fill="#fff"/>
  <path d="M222.03,87.02a90.452,90.452,0,0,0-90.452,90.452h180.9A90.451,90.451,0,0,0,222.03,87.02Z"/>
</svg>
