<svg id="Lager_1" data-name="Lager 1" xmlns="http://www.w3.org/2000/svg" viewBox="0 0 947.72 209.09"><defs><style>.cls-1{fill:#000}</style></defs><path class="cls-1" d="M851.28 386.56q0-18-6.39-31.51a48.78 48.78 0 00-18.49-21q-12.1-7.53-28.76-7.53-17.58 0-30.82 8a54.15 54.15 0 00-20.43 21.91 67.23 67.23 0 00-7.19 31.28q0 17.81 7.31 31.72a53.72 53.72 0 0020.66 21.8q13.35 7.88 30.7 7.88 17.8 0 30.93-8.33a55.57 55.57 0 0020.43-23.63l-16-7.3a54.71 54.71 0 01-14.5 16.32Q810.65 432 798.1 432q-17.13 0-27.51-10.27c-6.93-6.85-11.37-15.77-11.37-36.53 0-15.36 6.54-26.89 13.08-32.75s15-8.79 25.34-8.79q14.39 0 23.62 8.9T831.2 377h-43.09l-18 15.06H851c.2-1.55.28-3.37.28-5.5zm113.89 62.54q-17.58 0-31.39-7.88a55.94 55.94 0 01-21.57-21.8 67.81 67.81 0 010-63 56.83 56.83 0 0121.57-21.91q13.82-8 31.39-8t31.27 7.88a54.7 54.7 0 0121.23 21.8q7.53 13.92 7.53 31.72 0 17.58-7.53 31.5a54.64 54.64 0 01-21.23 21.8q-13.7 7.89-31.27 7.89zm0-17.58a37.2 37.2 0 0034.24-20.77q5-9.81 5-22.83a50.28 50.28 0 00-5-22.94 37.46 37.46 0 00-13.93-15.4 37.87 37.87 0 00-20.31-5.48 38.92 38.92 0 00-20.66 5.48 37.23 37.23 0 00-14 15.4 50.15 50.15 0 00-5 22.94q0 13 5 22.83a37.36 37.36 0 0014 15.29 38.92 38.92 0 0020.66 5.48z" transform="translate(-209.14 -279.95)"/><path class="cls-1" d="M659.36 0h19.81v165.49h-19.81zM258 50.22l-27.66 23.2v92.07h20.32V67.63h55.11V50.22H258z"/><path class="cls-1" d="M622.46 386.56q0-18-6.39-31.51a48.78 48.78 0 00-18.49-21q-12.11-7.53-28.76-7.53-17.58 0-30.82 8a54.15 54.15 0 00-20.43 21.91 67.23 67.23 0 00-7.19 31.28q0 17.81 7.31 31.72a53.72 53.72 0 0020.66 21.8q13.35 7.88 30.7 7.88 17.81 0 30.93-8.33a55.57 55.57 0 0020.43-23.63l-16-7.3a54.71 54.71 0 01-14.5 16.32q-8.1 5.82-20.65 5.82-17.13 0-27.51-10.27c-6.93-6.85-11.37-15.77-11.37-36.53 0-15.36 6.54-26.89 13.08-32.75s15-8.79 25.34-8.79q14.38 0 23.63 8.9t9.95 24.45h-43.09l-17.95 15h80.89c.15-1.49.23-3.31.23-5.44z" transform="translate(-209.14 -279.95)"/><path class="cls-1" d="M488.96 165.49l41.38-115.27h-20.95l-37.12 107-37.31-107H414l41.36 115.27h33.6z"/><path class="cls-1" d="M1156.86 387.93q0-17.81-7.53-31.72a54.7 54.7 0 00-21.23-21.8q-13.69-7.87-31.27-7.88t-31.39 8c-9.21 5.33-14.46 12-19.63 21.32s-7.28 20.26-7.28 32V489h19.81V387.81a50.12 50.12 0 015.14-22.83c3.34-6.62 6.68-11.75 12.69-15.4a38.92 38.92 0 0120.66-5.48 37.89 37.89 0 0120.31 5.48 37.46 37.46 0 0113.93 15.4 50.28 50.28 0 015 22.94q0 13.19-4.8 23a34.93 34.93 0 01-13.58 15.08 40 40 0 01-20.7 5.26c-4 0-7.75-1.45-11.26-2.42L1072.37 440c1.27.84 2.57 1.63 3.94 2.36 7.39 4 15.57 6.9 24.56 6.9a54.79 54.79 0 0029-7.77 52.67 52.67 0 0019.88-21.7q7.1-13.95 7.09-31.77zm-778.4 24.27l-27.11-22.75L266.14 461v13.61a6.3 6.3 0 006.3 6.3 6.22 6.22 0 002.88-.71l101.4-52.32a9.44 9.44 0 001.74-15.68zm-7.64-16.57l12.64 10.61a17.24 17.24 0 015.69 9.26l.2-4.31V367a31.49 31.49 0 00-17-28l-97-50.19a6.29 6.29 0 00-9.19 5.59v13.33l104.68 87.84z" transform="translate(-209.14 -279.95)"/><path class="cls-1" d="M258.08 294.46a14.37 14.37 0 0114.36-14.35V280h-2.78a31.45 31.45 0 00-20.38 7.5l-29 24.66a31.51 31.51 0 00-11.1 24v96.78a31.51 31.51 0 0011.1 24l29 24.66a31.45 31.45 0 0020.38 7.5h2.78v-.16a14.37 14.37 0 01-14.36-14.35V294.46z" transform="translate(-209.14 -279.95)"/></svg>