<?xml version="1.0" encoding="UTF-8"?>
<svg id="Layer_1" data-name="Layer 1" xmlns="http://www.w3.org/2000/svg" viewBox="0 0 500 500">
  <defs>
    <style>
      .cls-1 {
        fill: #fff;
      }
    </style>
  </defs>
  <rect y="0" width="500" height="500"/>
  <g>
    <polygon class="cls-1" points="107.916 187.6578 131.8269 187.6587 136.8961 174.3226 136.8961 172.4157 107.916 172.4157 107.916 140.1033 142.2111 140.1033 142.1604 125.7354 92.6541 125.7354 92.6541 232.2574 107.916 232.2574 107.916 187.6578"/>
    <polygon class="cls-1" points="232.2358 216.998 205.1378 216.998 205.1378 125.7395 189.8764 125.7395 189.8764 232.2574 232.2358 232.2574 232.2358 216.998"/>
    <polygon class="cls-1" points="361.9282 373.395 407.4019 373.395 407.4019 358.1414 377.1818 358.1414 377.1818 327.7608 398.6053 327.7608 403.6137 314.3801 403.6137 312.5074 377.1818 312.5074 377.1818 281.2405 407.4019 281.2405 407.4019 266.8816 361.9282 266.8816 361.9282 373.395"/>
    <polygon class="cls-1" points="193.9823 285.2529 181.277 312.5164 170.1387 312.5164 170.1387 266.8775 154.8966 266.8775 154.8966 373.397 170.1387 373.397 170.1387 327.7585 181.277 327.7585 193.9823 355.0229 193.9823 373.4057 209.2243 373.4057 209.2243 351.6462 194.5421 320.1375 209.2243 288.63 209.2243 266.8689 193.9823 266.8689 193.9823 285.2529"/>
    <polygon class="cls-1" points="331.0626 326.5931 329.1231 326.5931 304.1801 273.9733 304.1801 266.8792 288.938 266.8792 288.938 373.397 304.1801 373.397 304.1801 313.6505 306.1158 313.6505 331.0626 366.2782 331.0626 373.397 346.3047 373.397 346.3047 266.8792 331.0626 266.8792 331.0626 326.5931"/>
    <polygon class="cls-1" points="395.3137 125.7395 364.4456 220.1955 364.4456 232.2574 376.5367 232.2574 407.4061 137.803 407.4061 125.7395 395.3137 125.7395"/>
    <path class="cls-1" d="M263.5838,260.6666c0-8.3465-6.7893-15.1358-15.1342-15.1358s-15.1342,6.7893-15.1342,15.1358c0,4.9792,2.449,9.3694,6.1735,12.129l-19.3929,45.8301v54.7714h15.2421v-27.5626h26.2226v27.5626h15.2421v-54.7714l-19.3925-45.8301c3.7244-2.7596,6.1735-7.1498,6.1735-12.129Zm-15.1342-6.1689c3.4002,0,6.1673,2.7666,6.1673,6.1689,0,3.4002-2.7671,6.1673-6.1673,6.1673s-6.1677-2.7671-6.1677-6.1673c0-3.4023,2.7671-6.1689,6.1677-6.1689Zm13.1111,67.2201v9.7154h-26.2226v-9.7154l12.1368-28.6815h1.9489l12.1368,28.6815Z"/>
    <polygon class="cls-1" points="295.2235 178.9987 295.2235 232.2574 310.4656 232.2574 310.4656 125.7395 295.2235 125.7395 295.2235 133.3095 276.0877 183.7291 256.9519 133.3169 256.9519 125.7395 241.7098 125.7395 241.7098 232.2574 256.9519 232.2574 256.9519 178.9987 258.8884 178.9987 269.2024 204.7854 282.9734 204.7841 293.2857 178.9987 295.2235 178.9987"/>
    <rect class="cls-1" x="155.0733" y="125.7395" width="15.261" height="106.5179"/>
    <path class="cls-1" d="M108.0329,343.2774l-15.439,.0029,.001,5.9316c.0008,13.8143,11.5671,25.0526,25.7843,25.0526s25.7845-11.2392,25.7845-25.0547l-.001-13.0291c0-2.7234-.5368-5.4785-1.6408-8.4223-4.605-12.2818-16.316-15.7381-20.7247-17.0394-.3594-.1059-.6624-.1907-.8904-.2702-6.3277-2.2109-12.8728-6.4824-12.8728-9.8031v-9.6853c0-5.3376,4.5442-9.5185,10.3453-9.5185,10.3444,0,10.3444,9.5197,10.3444,9.5197l.001,6.5298,15.439-.0025v-6.5286c0-13.7615-11.5669-24.9575-25.7845-24.9575s-25.7843,11.1959-25.7843,24.9575v9.6853c0,15.0925,17.7723,22.4751,23.2195,24.3783,.414,.1446,.9603,.3106,1.6126,.503,4.2268,1.2474,8.883,2.9701,10.6388,7.6528,.4488,1.1967,.6579,2.15,.6579,3.0019l.001,13.0291c0,5.3916-4.5444,9.6149-10.3455,9.6149s-10.3453-4.2233-10.3453-9.6149"/>
  </g>
</svg>