<svg width="24" height="24" viewBox="0 0 24 24" fill="none" xmlns="http://www.w3.org/2000/svg">
<path d="M18.5085 6.27729C18.3735 6.20752 18.2421 6.13104 18.1147 6.04813C17.7444 5.80333 17.4049 5.51489 17.1035 5.18901C16.3494 4.32613 16.0677 3.45076 15.964 2.83787H15.9682C15.8815 2.32915 15.9173 2 15.9228 2H12.4879V15.2818C12.4879 15.4602 12.4879 15.6364 12.4804 15.8106C12.4804 15.8322 12.4783 15.8522 12.4771 15.8756C12.4771 15.8851 12.4771 15.8951 12.475 15.9051C12.475 15.9076 12.475 15.9101 12.475 15.9126C12.4388 16.3892 12.286 16.8495 12.0302 17.2532C11.7743 17.6568 11.4231 17.9914 11.0076 18.2275C10.5745 18.4739 10.0847 18.6032 9.5864 18.6025C7.98606 18.6025 6.68904 17.2976 6.68904 15.686C6.68904 14.0744 7.98606 12.7695 9.5864 12.7695C9.88934 12.7692 10.1904 12.8169 10.4784 12.9107L10.4826 9.41338C9.60822 9.30043 8.71991 9.36992 7.87372 9.61747C7.02754 9.86502 6.24184 10.2852 5.56618 10.8516C4.97416 11.366 4.47644 11.9798 4.09542 12.6653C3.95043 12.9153 3.40338 13.9198 3.33713 15.5502C3.29546 16.4755 3.57337 17.4342 3.70586 17.8305V17.8388C3.78919 18.0721 4.11209 18.8683 4.63831 19.5395C5.06264 20.078 5.56397 20.5509 6.12616 20.9432V20.9349L6.13449 20.9432C7.79732 22.0732 9.64098 21.999 9.64098 21.999C9.96013 21.9861 11.0292 21.999 12.2434 21.4236C13.59 20.7857 14.3566 19.8354 14.3566 19.8354C14.8463 19.2675 15.2358 18.6204 15.5082 17.9217C15.819 17.1047 15.9228 16.1247 15.9228 15.7331V8.68675C15.9644 8.71175 16.5194 9.07881 16.5194 9.07881C16.5194 9.07881 17.3189 9.59129 18.5664 9.92502C19.4613 10.1625 20.6671 10.2125 20.6671 10.2125V6.80268C20.2446 6.84851 19.3867 6.71518 18.5085 6.27729Z" fill="#140C08"/>
</svg>
