<svg width="24" height="24" viewBox="0 0 24 24" fill="none" xmlns="http://www.w3.org/2000/svg">
<path fill-rule="evenodd" clip-rule="evenodd" d="M12.6826 22H3.10385C2.49403 22 2 21.5056 2 20.8961V3.10386C2 2.49413 2.49411 2 3.10385 2H20.8962C21.5058 2 22 2.49413 22 3.10386V20.8961C22 21.5057 21.5057 22 20.8962 22H15.7997V14.2549H18.3994L18.7886 11.2365H15.7997V9.30943C15.7997 8.43553 16.0424 7.83998 17.2955 7.83998L18.8939 7.83929V5.13965C18.6175 5.10286 17.6687 5.02065 16.5648 5.02065C14.2603 5.02065 12.6826 6.42733 12.6826 9.01053V11.2365H10.0763V14.2549H12.6826V22Z" fill="#140C08"/>
</svg>
