<svg width="24" height="24" viewBox="0 0 24 24" fill="none" xmlns="http://www.w3.org/2000/svg">
<path d="M12 3.80183C14.6701 3.80183 14.9864 3.81203 16.0408 3.86014C17.0158 3.90465 17.5453 4.06755 17.8977 4.20445C18.3644 4.38586 18.6976 4.60258 19.0475 4.9525C19.3974 5.30241 19.6142 5.63553 19.7955 6.10226C19.9325 6.45467 20.0954 6.98418 20.1399 7.95912C20.188 9.01362 20.1982 9.32987 20.1982 12C20.1982 14.6701 20.188 14.9864 20.1399 16.0409C20.0954 17.0159 19.9325 17.5453 19.7955 17.8977C19.6142 18.3645 19.3974 18.6977 19.0475 19.0476C18.6976 19.3975 18.3644 19.6142 17.8977 19.7956C17.5453 19.9325 17.0158 20.0954 16.0408 20.1399C14.9865 20.188 14.6703 20.1982 12 20.1982C9.3297 20.1982 9.01344 20.188 7.95914 20.1399C6.98415 20.0954 6.45466 19.9325 6.10229 19.7956C5.63551 19.6142 5.30235 19.3975 4.95244 19.0476C4.60252 18.6977 4.38579 18.3645 4.20442 17.8977C4.06748 17.5453 3.90457 17.0158 3.86007 16.0409C3.81196 14.9864 3.8018 14.6701 3.8018 12C3.8018 9.32987 3.81196 9.01365 3.86007 7.95919C3.90457 6.98421 4.06748 6.45467 4.20442 6.10226C4.38579 5.63553 4.60252 5.30241 4.95244 4.9525C5.30235 4.60258 5.63551 4.38586 6.10229 4.20445C6.45466 4.06755 6.98416 3.90465 7.95911 3.86014C9.01361 3.81203 9.32986 3.80183 12 3.80183V3.80183ZM12 2C9.28413 2 8.94362 2.01154 7.87701 2.0602C6.81259 2.10879 6.08569 2.27775 5.44958 2.52497C4.79199 2.78053 4.23432 3.1225 3.67839 3.67843C3.12246 4.23436 2.78052 4.79205 2.52496 5.44964C2.27774 6.08575 2.10872 6.8126 2.06014 7.87702C2.01147 8.94359 2 9.28415 2 12C2 14.7159 2.01147 15.0564 2.06014 16.123C2.10872 17.1874 2.27774 17.9143 2.52496 18.5504C2.78052 19.208 3.12246 19.7657 3.67839 20.3216C4.23432 20.8776 4.79199 21.2195 5.44958 21.475C6.08569 21.7222 6.81259 21.8913 7.87701 21.9399C8.94362 21.9885 9.28413 22 12 22C14.7158 22 15.0564 21.9885 16.123 21.9399C17.1874 21.8913 17.9143 21.7222 18.5504 21.475C19.208 21.2195 19.7656 20.8776 20.3216 20.3216C20.8775 19.7657 21.2194 19.208 21.475 18.5504C21.7222 17.9143 21.8912 17.1874 21.9398 16.123C21.9885 15.0564 22 14.7159 22 12C22 9.28415 21.9885 8.94359 21.9398 7.87702C21.8912 6.8126 21.7222 6.08575 21.475 5.44964C21.2194 4.79205 20.8775 4.23436 20.3216 3.67843C19.7656 3.1225 19.208 2.78053 18.5504 2.52497C17.9143 2.27775 17.1874 2.10879 16.123 2.0602C15.0564 2.01154 14.7158 2 12 2ZM12 6.86489C9.16393 6.86489 6.86482 9.16395 6.86482 12C6.86482 14.8361 9.16393 17.1352 12 17.1352C14.836 17.1352 17.1351 14.8361 17.1351 12C17.1351 9.16395 14.836 6.86489 12 6.86489ZM12 15.3334C10.159 15.3334 8.66663 13.8409 8.66663 12C8.66663 10.1591 10.159 8.66664 12 8.66664C13.8409 8.66664 15.3333 10.1591 15.3333 12C15.3333 13.8409 13.8409 15.3334 12 15.3334ZM18.538 6.66197C18.538 7.32472 18.0008 7.86203 17.338 7.86203C16.6753 7.86203 16.138 7.32472 16.138 6.66197C16.138 5.99922 16.6753 5.46198 17.338 5.46198C18.0008 5.46198 18.538 5.99922 18.538 6.66197Z" fill="#140C08"/>
</svg>
