<svg width="24" height="24" viewBox="0 0 24 24" fill="none" xmlns="http://www.w3.org/2000/svg">
<path fill-rule="evenodd" clip-rule="evenodd" d="M22 5.89413C21.2651 6.2154 20.4739 6.43263 19.644 6.5297C20.4915 6.03046 21.1419 5.23888 21.4483 4.29586C20.6547 4.75813 19.7778 5.09437 18.841 5.27465C18.0944 4.48997 17.0273 4 15.8463 4C13.5819 4 11.7447 5.80859 11.7447 8.039C11.7447 8.35565 11.7799 8.66307 11.8503 8.95892C8.4401 8.79019 5.41727 7.18385 3.39226 4.73734C3.03892 5.33596 2.837 6.03046 2.837 6.77007C2.837 8.17072 3.56131 9.40727 4.66244 10.1319C3.99096 10.1122 3.35704 9.92851 2.80296 9.62803V9.67773C2.80296 11.6354 4.21753 13.2683 6.09579 13.6381C5.75183 13.7329 5.38909 13.7803 5.01461 13.7803C4.75048 13.7803 4.49222 13.756 4.24218 13.7086C4.76457 15.3127 6.27892 16.4811 8.07501 16.5123C6.67101 17.5963 4.90075 18.2423 2.97905 18.2423C2.648 18.2423 2.32048 18.2237 2 18.1868C3.81605 19.3309 5.9737 20 8.28984 20C15.8381 20 19.9644 13.8462 19.9644 8.50822C19.9644 8.33256 19.9609 8.1569 19.9539 7.98471C20.7557 7.41497 21.4518 6.70424 22 5.89413Z" fill="#140C08"/>
</svg>
