<svg width="400" height="753" viewBox="0 0 400 753" fill="none" xmlns="http://www.w3.org/2000/svg">
<g clip-path="url(#clip0_40_861)">
<path d="M43.4174 436.336C43.4174 349.86 113.524 279.754 200 279.754C286.476 279.754 356.583 349.86 356.583 436.336" fill="#FEEFD2"/>
<path d="M141.233 49.2325C141.233 49.3109 141.233 49.3894 141.221 49.4678C141.244 49.3894 141.266 49.2997 141.289 49.2213C141.266 49.2213 141.255 49.2213 141.233 49.2213V49.2325Z" fill="#140C08"/>
<path d="M333.501 669.77C308.639 668.381 304.941 637.087 266.756 638.028C228.291 637.199 225.176 668.246 200.022 669.77C175.003 668.302 171.585 637.132 133.288 638.028C94.9915 637.132 91.5966 668.291 66.5546 669.77C41.3557 668.224 38.2633 637.176 -0.179321 638.017V671.63C12.0112 670.734 19.4845 681.725 29.154 689.714C21.7366 684.605 12.3361 680.795 -0.179321 680.795V714.409C23.3613 716.269 27.1484 753.423 66.5546 752.504C106.386 753.244 109.322 716.504 133.288 714.409C157.008 716.381 160.471 753.367 200.022 752.504C239.675 753.322 242.913 716.459 266.756 714.409C290.689 716.493 293.781 753.3 333.501 752.504C372.952 753.412 376.527 716.392 400.235 714.409V680.795C387.709 680.795 378.319 684.605 370.891 689.714C380.571 681.714 388.034 670.734 400.235 671.63V638.017C361.837 637.165 358.611 668.258 333.501 669.759V669.77ZM87.2829 705.58C63.9551 734.398 52.9299 711.406 33.8151 693.277C48.7282 706.342 84.3921 706.342 99.2941 693.277C94.5434 697.288 90.6778 701.703 87.2829 705.58ZM133.288 680.795C120.773 680.795 111.384 684.594 103.966 689.703C113.647 681.714 121.098 670.734 133.288 671.63C145.479 670.734 152.952 681.725 162.622 689.714C155.193 684.605 145.804 680.795 133.288 680.795ZM220.751 705.58C197.423 734.409 186.398 711.406 167.283 693.277C182.207 706.353 217.871 706.342 232.773 693.277C228.011 697.288 224.146 701.703 220.751 705.58ZM266.756 680.795C254.241 680.795 244.84 684.594 237.423 689.714C247.104 681.714 254.555 670.745 266.756 671.63C278.958 670.734 286.42 681.725 296.101 689.714C288.672 684.594 279.283 680.795 266.756 680.795ZM354.218 705.58C330.88 734.409 319.854 711.406 300.739 693.266C315.664 706.342 351.339 706.342 366.252 693.266C361.49 697.277 357.625 701.692 354.23 705.58H354.218Z" fill="#140C08"/>
<path d="M333.501 620.639C306.129 619.137 303.843 594.443 266.756 595.238C229.501 594.487 227.574 619.059 200.022 620.639C172.549 619.092 170.443 594.454 133.288 595.238C96.0784 594.476 93.9607 619.137 66.5546 620.639C39.0476 619.104 37.1204 594.51 -0.179321 595.238V628.851C27.1708 630.353 29.4901 655.059 66.5546 654.252C103.832 655.003 105.714 630.431 133.288 628.851C160.728 630.387 162.891 655.036 200.022 654.252C237.266 655.003 239.339 630.364 266.756 628.851C294.23 630.375 296.213 654.992 333.501 654.252C370.633 655.036 372.896 630.342 400.235 628.851V595.238C363.025 594.476 361.02 619.07 333.501 620.639Z" fill="#140C08"/>
<path d="M333.501 571.518C321.277 571.518 315.899 568.448 308.459 564.202C288.594 548.964 244.784 549.042 225.053 564.202C213.008 573.737 187.025 573.737 174.98 564.202C155.003 548.975 111.552 548.975 91.5854 564.202C84.1456 568.448 78.7787 571.507 66.5546 571.507C36.7843 570.207 35.5966 551.72 -0.179321 552.459V586.073C29.5238 587.372 30.8347 605.86 66.5546 605.12C102.33 605.849 103.518 587.372 133.288 586.073C163.025 587.372 164.28 605.86 200.022 605.12C235.776 605.849 237.008 587.372 266.756 586.073C296.527 587.372 297.725 605.86 333.501 605.12C369.232 605.849 370.499 587.372 400.235 586.073V552.459C364.471 551.731 363.26 570.207 333.501 571.507V571.518Z" fill="#140C08"/>
<path d="M333.501 522.387C319.91 522.387 313.815 520.067 306.106 517.132C242.667 492.011 222.218 537.232 172.639 517.132C156.112 507.641 110.476 507.641 93.9496 517.132C86.2409 520.056 80.1568 522.375 66.5658 522.375C35.5854 521.826 34.7675 509.232 -0.168091 509.681V543.294C30.7563 543.843 31.6638 556.437 66.5658 555.989C101.513 556.426 102.319 543.843 133.3 543.294C164.246 543.843 165.12 556.437 200.034 555.989C234.958 556.426 235.809 543.843 266.767 543.294C297.737 543.843 298.577 556.437 333.501 555.989C368.403 556.426 369.288 543.843 400.235 543.294V509.681C365.3 509.244 364.459 521.826 333.501 522.375V522.387Z" fill="#140C08"/>
<path d="M333.501 473.255C301.333 473.132 301.132 466.801 266.767 466.902C248.504 466.902 238.812 468.751 230.263 470.375C218.118 474.039 181.961 474.039 169.815 470.375C157.008 466.061 109.602 466.061 96.7955 470.375C88.6835 471.921 81.6695 473.255 66.577 473.255C34.3866 473.132 34.2297 466.801 -0.15686 466.902V500.515C14.9468 500.515 21.9496 501.849 30.0728 503.395C42.8683 507.709 90.2857 507.709 103.092 503.395C115.238 499.731 151.395 499.731 163.541 503.395C172.09 505.019 181.781 506.868 200.045 506.868C218.308 506.868 228 505.019 236.549 503.395C248.706 499.731 284.84 499.731 297.008 503.395C309.815 507.709 357.221 507.709 370.028 503.395C378.151 501.849 385.154 500.515 400.258 500.515V466.902C365.882 466.801 365.703 473.132 333.524 473.255H333.501Z" fill="#140C08"/>
<path d="M386.88 424.134V396.896H362.801V393.905H356.157V388.773H348.358V391.866H346.969V394.566H346.409V404.022H343.171V400.022H335.944V395.955H328.202V400H327.507V400.538H326.678V400.146H326.05V399.316H318.98V399.955H318.23V400.515H317.389V395.989H316.728V395.429H314.655V396.067H305.804V395.35H303.641V364.986H301.176V395.193H298.308V395.989H293.02V419.272H288.168V398.846H273.367V406.868C272.358 406.913 270.23 406.868 269.266 406.599L218.252 90.9691L232.493 66.3081H212.37C212.37 59.9215 207.518 54.6554 201.311 53.9832L199.966 5.40051L198.622 53.9832C192.415 54.6554 187.563 59.9327 187.563 66.3081H167.44L181.681 90.9691L132.818 393.333H132.19V395.059H129.199V402.992H128.515V403.709H126.779V404.426H124.975V409.569C124.627 409.972 124.302 410.398 124.022 410.857V410.073H122.633V409.49H119.899V413.815H118.577V416.762H116.863V408.896H114.286V410.274H113.076V415.563H108.202V390.196H105.49V388.874H106.846V385.725H103.574V384.403H89.3669V385.725H88.112V389.031H89.3669V390.353H86.7899V394.644H82.2969V393.199H78.8907V390.521H78.0952V388.695H77.4342V385.826H75.3949C73.8711 374.274 64.0896 380.717 65.1764 385.389H63.7759V387.978H62.577V390.835H61.5686V404.448L59.014 403.294L56.6274 405.457V411.451H54.4201V412.213H52.7955V408.65H50.8795V412.011H49.8487V413.02H48V415.272H41.6919V414.006H39.3837V392.415H38.6218V391.899H35.7759V392.437H34.958V415.563H32.9299V414.118H30.2409V412.672H23.1933V408.807H13.0868V424.146H-0.168091V457.759H400.246V424.146H386.88V424.134ZM193.21 249.95L190.42 350.723L179.787 287.193L193.21 249.95ZM178.185 277.602L168.336 218.723L180.605 239.978C182.409 243.641 187.171 243.283 190.588 243.204L178.185 277.602ZM220.19 287.249L209.569 350.711L206.779 250.039L220.19 287.249ZM209.378 243.193C212.818 243.272 217.58 243.641 219.395 239.966L231.664 218.711L221.804 277.658L209.378 243.193ZM206.599 243.283V243.193H206.846L206.599 243.283ZM210.263 375.451L223.496 296.392L262.812 405.479H261.457V406.857H259.305V407.529H252.672V406.084H251.485V409.524H250.599V410.162H246.084V411.429H240.448V413.367H239.126V414.05H238.387V409.434H237.165V402.476H220.471V400.359H217.479V397.076H210.868L210.263 375.44V375.451ZM193.401 243.294L193.12 243.193H193.401V243.294ZM261.378 387.473L225.098 286.801L235.283 225.95L261.389 387.473H261.378ZM233.098 212.493L232.706 212.426L232.639 212.818H213.277V209.714H232.65L233.098 212.482V212.493ZM214.017 94.4537L231.664 203.675H205.49L205.401 200.571H220.795L211.496 184.471C210.353 182.095 207.036 182.577 204.896 182.555L202.454 94.4425H214.006L214.017 94.4537ZM199.989 56.2689C212.986 56.0896 212.986 76.493 199.989 76.3137C186.992 76.493 186.992 56.0896 199.989 56.2689ZM185.961 94.4537H197.513L195.07 182.566C192.919 182.588 189.625 182.106 188.471 184.482L179.171 200.583H194.566L194.476 203.686H168.302L185.95 94.4649L185.961 94.4537ZM167.328 209.725H186.7V212.829H167.339L167.272 212.437L166.88 212.504L167.328 209.737V209.725ZM164.706 225.95L174.88 286.734L138.633 387.305L164.706 225.95ZM176.482 296.325C178.196 309.031 192.616 381.412 189.244 392.661L186.14 394.868V390.823H160.829V403.641H144.908V395.204H142.723V393.311H141.524L176.482 296.325Z" fill="#140C08"/>
<path d="M200 76.3138C205.524 76.3138 210.017 71.8208 210.017 66.297C210.017 60.7731 205.524 56.2802 200 56.2802C194.476 56.2802 189.983 60.7731 189.983 66.297C189.983 71.8208 194.476 76.3138 200 76.3138Z" fill="#F35336"/>
<path d="M200 239.664C203.641 239.664 206.599 236.706 206.599 233.064C206.599 229.423 203.641 226.465 200 226.465C196.358 226.465 193.401 229.423 193.401 233.064C193.401 236.706 196.358 239.664 200 239.664Z" fill="#FBAF1D"/>
</g>
<defs>
<clipPath id="clip0_40_861">
<rect width="400" height="752.381" fill="white"/>
</clipPath>
</defs>
</svg>
